<svg width="200" height="200" viewBox="0 0 200 200" fill="none" xmlns="http://www.w3.org/2000/svg">
<g opacity="0.5">
<path fill-rule="evenodd" clip-rule="evenodd" d="M79.3235 47.9683V53.738C79.3425 55.3068 78.7502 56.8189 77.6769 57.9418C76.6036 59.0647 75.1372 59.7063 73.6005 59.7255H71.2544C70.4596 59.6386 69.8568 58.9539 69.8568 58.1379C69.8568 57.3219 70.4596 56.6372 71.2544 56.5503H73.5294C74.249 56.5455 74.937 56.2479 75.4408 55.7233C75.9447 55.1988 76.2227 54.4907 76.2132 53.7561V47.9683C76.194 46.4633 75.0036 45.2481 73.5294 45.2285H67.8597C66.3775 45.2285 65.1759 46.4551 65.1759 47.9683V56.6229C65.147 57.5005 64.4364 58.1936 63.5763 58.1832C63.163 58.1738 62.7706 57.9958 62.4867 57.689C62.2029 57.3821 62.0512 56.9721 62.0656 56.5503V47.9683C62.0608 46.3964 62.6692 44.8872 63.7563 43.7741C64.8434 42.6609 66.3199 42.0352 67.8597 42.0352H73.5294C76.7045 42.1122 79.2579 44.7267 79.3235 47.9683ZM52.5213 42.0352H46.8516C43.6498 42.055 41.0591 44.6998 41.0397 47.9683V53.7561C41.0591 57.0216 43.6527 59.6611 46.8516 59.671H52.5213C54.061 59.6759 55.5394 59.0548 56.6298 57.945C57.7203 56.8352 58.3332 55.328 58.3332 53.7561V47.9683C58.3234 44.6957 55.727 42.0452 52.5213 42.0352ZM55.205 53.7514C55.2145 54.486 54.9365 55.1941 54.4327 55.7186C53.9289 56.2431 53.2409 56.5408 52.5213 56.5456H46.8515C46.1212 56.5605 45.4165 56.271 44.9 55.7437C44.3834 55.2164 44.0998 54.497 44.1144 53.7514V47.9635C44.1143 47.2274 44.4044 46.5222 44.9193 46.0068C45.4342 45.4914 46.1306 45.2092 46.8515 45.2238H52.5213C53.9994 45.2337 55.1953 46.4546 55.205 47.9635V53.7514ZM67.8598 62.7056H73.5295C76.7283 62.7155 79.3219 65.355 79.3414 68.6205V74.4084C79.322 77.6769 76.7312 80.3217 73.5295 80.3415H67.8598C64.6609 80.3216 62.0753 77.674 62.0656 74.4084V68.6205C62.0656 65.3538 64.6598 62.7056 67.8598 62.7056ZM75.4324 76.3493C75.9368 75.8345 76.218 75.1348 76.2132 74.4067V68.6188C76.2132 67.8922 75.9304 67.1953 75.4271 66.6815C74.9238 66.1677 74.2412 65.8791 73.5294 65.8791H67.8597C66.3775 65.8791 65.1759 67.1057 65.1759 68.6188V74.4067C65.1712 75.1348 65.4524 75.8345 65.9567 76.3493C66.4611 76.8642 67.1465 77.1513 67.8597 77.1464H73.5294C74.2427 77.1513 74.9281 76.8642 75.4324 76.3493ZM41.0397 74.3872V68.6174C41.0397 67.0456 41.6525 65.5383 42.743 64.4286C43.8335 63.3188 45.3118 62.6977 46.8516 62.7026H49.1799C49.7752 62.6375 50.3546 62.9251 50.6722 63.4432C50.9898 63.9613 50.9898 64.619 50.6722 65.1371C50.3546 65.6552 49.7752 65.9428 49.1799 65.8777H46.8516C45.3664 65.8777 44.1598 67.1014 44.15 68.6174V74.3328C44.1878 75.8366 45.3782 77.0439 46.8516 77.0725H52.5568C53.2717 77.0773 53.9589 76.7908 54.466 76.2765C54.9732 75.7622 55.2584 75.0625 55.2584 74.3328V65.7507C55.1424 65.1098 55.4197 64.4614 55.9589 64.1124C56.4981 63.7634 57.1909 63.7839 57.7093 64.1643C58.2277 64.5447 58.4676 65.2085 58.3154 65.8414V74.3872C58.3154 77.6639 55.7133 80.3202 52.5035 80.3202H46.8516C43.6695 80.2528 41.1057 77.6356 41.0397 74.3872Z" fill="#145AE3"/>
</g>
<path opacity="0.4" d="M88.0604 61.2891H72.276C65.739 61.2891 60.4421 66.6308 60.4421 73.223V89.1409C60.4421 95.7331 65.739 101.075 72.276 101.075H88.0604C94.5974 101.075 99.8943 95.7331 99.8943 89.1409V73.223C99.8943 66.6308 94.5974 61.2891 88.0604 61.2891" fill="url(#paint0_linear_2659_9407)"/>
<path fill-rule="evenodd" clip-rule="evenodd" d="M141.843 61.2891H126.058C119.521 61.2891 114.224 66.6308 114.224 73.223V89.1409C114.224 95.7331 119.521 101.075 126.058 101.075H141.843C148.379 101.075 153.676 95.7331 153.676 89.1409V73.223C153.676 66.6308 148.379 61.2891 141.843 61.2891ZM141.843 114.735H126.058C119.521 114.735 114.224 120.076 114.224 126.668V142.586C114.224 149.174 119.521 154.52 126.058 154.52H141.843C148.379 154.52 153.676 149.174 153.676 142.586V126.668C153.676 120.076 148.379 114.735 141.843 114.735ZM72.2761 114.735H88.0605C94.5975 114.735 99.8944 120.076 99.8944 126.668V142.586C99.8944 149.174 94.5975 154.52 88.0605 154.52H72.2761C65.7391 154.52 60.4422 149.174 60.4422 142.586V126.668C60.4422 120.076 65.7391 114.735 72.2761 114.735Z" fill="url(#paint1_linear_2659_9407)"/>
<path d="M169 34H179C181.761 34 184 36.2386 184 39V49H174C171.239 49 169 46.7614 169 44V34Z" fill="url(#paint2_linear_2659_9407)"/>
<path d="M19 176.535L19 161.869C19 157.818 22.2832 154.535 26.3333 154.535L41 154.535L41 169.202C41 173.252 37.7167 176.535 33.6666 176.535L19 176.535Z" fill="url(#paint3_linear_2659_9407)"/>
<path opacity="0.5" d="M26.3334 134H36.1111C38.8112 134 41 136.189 41 138.889V148.667H31.2223C28.5222 148.667 26.3334 146.478 26.3334 143.778V134Z" fill="url(#paint4_linear_2659_9407)"/>
<defs>
<linearGradient id="paint0_linear_2659_9407" x1="104.997" y1="104.7" x2="48.2009" y2="85.0159" gradientUnits="userSpaceOnUse">
<stop stop-color="#145AE3"/>
<stop offset="1" stop-color="#15AEEF"/>
</linearGradient>
<linearGradient id="paint1_linear_2659_9407" x1="165.735" y1="163.015" x2="31.7584" y2="116.188" gradientUnits="userSpaceOnUse">
<stop stop-color="#145AE3"/>
<stop offset="1" stop-color="#15AEEF"/>
</linearGradient>
<linearGradient id="paint2_linear_2659_9407" x1="167.06" y1="50.3667" x2="188.615" y2="42.8332" gradientUnits="userSpaceOnUse">
<stop stop-color="#145AE3"/>
<stop offset="1" stop-color="#15AEEF"/>
</linearGradient>
<linearGradient id="paint3_linear_2659_9407" x1="43.0044" y1="179.38" x2="31.9553" y2="147.767" gradientUnits="userSpaceOnUse">
<stop stop-color="#145AE3"/>
<stop offset="1" stop-color="#15AEEF"/>
</linearGradient>
<linearGradient id="paint4_linear_2659_9407" x1="24.4365" y1="150.003" x2="45.5124" y2="142.637" gradientUnits="userSpaceOnUse">
<stop stop-color="#145AE3"/>
<stop offset="1" stop-color="#15AEEF"/>
</linearGradient>
</defs>
</svg>
