<svg width="200" height="200" viewBox="0 0 200 200" fill="none" xmlns="http://www.w3.org/2000/svg">
<g opacity="0.5">
<path fill-rule="evenodd" clip-rule="evenodd" d="M159.421 33.7313V36.2787C166.827 36.9972 170.616 41.0905 170.616 48.4498V68.8074C170.616 76.994 165.949 81.1526 156.767 81.1526H140.157C130.974 81.1526 126.308 76.994 126.308 68.8074V48.4498C126.308 43.5509 127.977 40.0454 131.402 37.9988C131.942 37.6303 132.64 37.6046 133.205 37.9324C133.77 38.2602 134.103 38.885 134.066 39.5452C134.029 40.2055 133.627 40.7872 133.029 41.047C130.76 42.3969 129.69 44.7484 129.69 48.4498V49.103H160.919C161.853 49.103 162.61 49.8731 162.61 50.823C162.61 51.773 161.853 52.5431 160.919 52.5431H129.69V68.8074C129.69 75.0562 132.729 77.6472 140.157 77.6908H156.767C164.087 77.6908 167.212 75.0345 167.212 68.7856V48.428C167.212 42.9848 164.836 40.3503 159.421 39.7188V41.3736C159.296 42.2556 158.537 42.8994 157.661 42.8658C156.786 42.8322 156.077 42.132 156.018 41.2429V33.5789C156.034 33.1186 156.232 32.6844 156.565 32.3734C156.899 32.0623 157.342 31.9005 157.794 31.9241C158.726 31.9825 159.446 32.7815 159.421 33.7313ZM140.36 42.4833C140.039 42.8065 139.603 42.9852 139.151 42.9793C138.225 42.9556 137.491 42.1792 137.503 41.2375V33.7259C137.6 32.8447 138.333 32.1785 139.204 32.1785C140.076 32.1785 140.809 32.8447 140.906 33.7259V36.0991H150.581C151.515 36.0991 152.272 36.8692 152.272 37.8192C152.272 38.7691 151.515 39.5392 150.581 39.5392H140.863V41.2593C140.863 41.7193 140.682 42.1601 140.36 42.4833ZM158.779 58.0504C157.597 58.0504 156.638 59.0252 156.638 60.2277C156.638 61.4302 157.597 62.405 158.779 62.405C159.961 62.405 160.919 61.4302 160.919 60.2277C160.919 59.6465 160.691 59.0894 160.285 58.6804C159.879 58.2714 159.329 58.0446 158.757 58.0504H158.779ZM146.364 60.2276C146.364 59.0251 147.322 58.0503 148.505 58.0503C149.687 58.0503 150.645 59.0251 150.645 60.2276C150.645 61.4301 149.687 62.4049 148.505 62.4049C147.322 62.4049 146.364 61.4301 146.364 60.2276ZM138.252 58.0504C137.07 58.0504 136.111 59.0252 136.111 60.2277C136.111 61.4302 137.07 62.405 138.252 62.405C139.434 62.405 140.392 61.4302 140.392 60.2277C140.392 59.6465 140.164 59.0894 139.758 58.6804C139.352 58.2714 138.802 58.0446 138.23 58.0504H138.252ZM156.638 69.0474C156.638 67.8449 157.597 66.8701 158.779 66.8701H158.757C159.329 66.8643 159.879 67.0911 160.285 67.5001C160.691 67.909 160.919 68.4661 160.919 69.0474C160.919 70.2499 159.961 71.2247 158.779 71.2247C157.597 71.2247 156.638 70.2499 156.638 69.0474ZM148.505 66.87C147.322 66.87 146.364 67.8448 146.364 69.0473C146.364 70.2498 147.322 71.2246 148.505 71.2246C149.687 71.2246 150.645 70.2498 150.645 69.0473C150.645 67.8448 149.687 66.87 148.505 66.87ZM136.111 69.0474C136.111 67.8449 137.07 66.8701 138.252 66.8701H138.23C138.802 66.8643 139.352 67.0911 139.758 67.5001C140.164 67.909 140.392 68.4661 140.392 69.0474C140.392 70.2499 139.434 71.2247 138.252 71.2247C137.07 71.2247 136.111 70.2499 136.111 69.0474Z" fill="#145AE3"/>
</g>
<path fill-rule="evenodd" clip-rule="evenodd" d="M39.077 132.27V88.9336H141.539V132.617C141.539 150.485 130.291 161.471 112.296 161.471H68.2634C50.4366 161.471 39.077 150.257 39.077 132.27ZM67.3071 118.262C64.7202 118.381 62.5833 116.327 62.4708 113.714C62.4708 111.095 64.4953 108.932 67.0821 108.813C69.6127 108.813 71.6935 110.811 71.7497 113.367C71.8622 115.991 69.8377 118.154 67.3071 118.262ZM90.4204 118.262C87.8335 118.381 85.6966 116.327 85.5841 113.714C85.5841 111.095 87.6086 108.932 90.1954 108.813C92.726 108.813 94.8067 110.811 94.863 113.367C94.9755 115.991 92.951 118.154 90.4204 118.262ZM113.365 139.207C110.778 139.15 108.697 136.987 108.697 134.368C108.641 131.75 110.721 129.592 113.308 129.535H113.365C116.008 129.535 118.145 131.698 118.145 134.368C118.145 137.044 116.008 139.207 113.365 139.207ZM85.5841 134.366C85.6966 136.984 87.8335 139.039 90.4204 138.919C92.951 138.811 94.9755 136.648 94.863 134.03C94.8067 131.468 92.726 129.47 90.1954 129.47C87.6086 129.59 85.5841 131.747 85.5841 134.366ZM62.4151 134.366C62.5276 136.984 64.6645 139.039 67.2514 138.919C69.782 138.811 71.8065 136.648 71.694 134.03C71.6377 131.468 69.557 129.47 67.0264 129.47C64.4396 129.59 62.4151 131.747 62.4151 134.366ZM108.753 113.664C108.753 111.045 110.777 108.939 113.364 108.882C115.895 108.882 117.919 110.926 118.032 113.436C118.088 116.055 116.064 118.218 113.533 118.269C110.946 118.326 108.809 116.334 108.753 113.721V113.664Z" fill="url(#paint0_linear_2659_9397)"/>
<path opacity="0.4" d="M39.0961 88.9177C39.1692 85.5763 39.4504 78.9447 39.979 76.8101C42.6783 64.8049 51.8447 57.1771 64.9476 56.0898H115.672C128.663 57.234 137.942 64.913 140.641 76.8101C141.164 78.8878 141.445 85.5706 141.518 88.9177H39.0961Z" fill="url(#paint1_linear_2659_9397)"/>
<path d="M69.2739 73.7452C71.7483 73.7452 73.604 71.8724 73.604 69.362V52.006C73.604 49.4957 71.7483 47.6172 69.2739 47.6172C66.7995 47.6172 64.9437 49.4957 64.9437 52.006V69.362C64.9437 71.8724 66.7995 73.7452 69.2739 73.7452" fill="url(#paint2_linear_2659_9397)"/>
<path d="M111.341 73.7452C113.759 73.7452 115.671 71.8724 115.671 69.362V52.006C115.671 49.4957 113.759 47.6172 111.341 47.6172C108.866 47.6172 107.01 49.4957 107.01 52.006V69.362C107.01 71.8724 108.866 73.7452 111.341 73.7452" fill="url(#paint3_linear_2659_9397)"/>
<path d="M7 14L21.6667 14C25.7167 14 29 17.2832 29 21.3333V36H14.3333C10.2832 36 7 32.7167 7 28.6666L7 14Z" fill="url(#paint4_linear_2659_9397)"/>
<path opacity="0.5" d="M49.5333 21.332L49.5333 31.1098C49.5333 33.8099 47.3445 35.9987 44.6444 35.9987L34.8667 35.9987L34.8667 26.2209C34.8667 23.5209 37.0555 21.332 39.7556 21.332L49.5333 21.332Z" fill="url(#paint5_linear_2659_9397)"/>
<path opacity="0.5" d="M163 161H173.667C176.612 161 179 163.388 179 166.333V177H168.333C165.388 177 163 174.612 163 171.667V161Z" fill="url(#paint6_linear_2659_9397)"/>
<defs>
<linearGradient id="paint0_linear_2659_9397" x1="25.8253" y1="168.08" x2="158.67" y2="102.497" gradientUnits="userSpaceOnUse">
<stop stop-color="#145AE3"/>
<stop offset="1" stop-color="#15AEEF"/>
</linearGradient>
<linearGradient id="paint1_linear_2659_9397" x1="25.8495" y1="91.9087" x2="101.297" y2="9.63791" gradientUnits="userSpaceOnUse">
<stop stop-color="#145AE3"/>
<stop offset="1" stop-color="#15AEEF"/>
</linearGradient>
<linearGradient id="paint2_linear_2659_9397" x1="63.8237" y1="76.1257" x2="77.6037" y2="74.5294" gradientUnits="userSpaceOnUse">
<stop stop-color="#145AE3"/>
<stop offset="1" stop-color="#15AEEF"/>
</linearGradient>
<linearGradient id="paint3_linear_2659_9397" x1="105.89" y1="76.1257" x2="119.67" y2="74.5294" gradientUnits="userSpaceOnUse">
<stop stop-color="#145AE3"/>
<stop offset="1" stop-color="#15AEEF"/>
</linearGradient>
<linearGradient id="paint4_linear_2659_9397" x1="4.15467" y1="38.0044" x2="35.7686" y2="26.9553" gradientUnits="userSpaceOnUse">
<stop stop-color="#145AE3"/>
<stop offset="1" stop-color="#15AEEF"/>
</linearGradient>
<linearGradient id="paint5_linear_2659_9397" x1="33.5304" y1="19.4351" x2="40.8965" y2="40.5111" gradientUnits="userSpaceOnUse">
<stop stop-color="#145AE3"/>
<stop offset="1" stop-color="#15AEEF"/>
</linearGradient>
<linearGradient id="paint6_linear_2659_9397" x1="160.931" y1="178.458" x2="183.923" y2="170.422" gradientUnits="userSpaceOnUse">
<stop stop-color="#145AE3"/>
<stop offset="1" stop-color="#15AEEF"/>
</linearGradient>
</defs>
</svg>
