<svg width="200" height="200" viewBox="0 0 200 200" fill="none" xmlns="http://www.w3.org/2000/svg">
<g opacity="0.5">
<path fill-rule="evenodd" clip-rule="evenodd" d="M172.351 142.861C172.351 143.821 171.57 144.602 170.61 144.602H170.589V144.561C169.617 144.561 168.83 143.775 168.827 142.803V142.799V136.944C168.827 129.913 164.981 126.067 157.97 126.067H140.697C133.682 126.067 129.813 129.936 129.813 136.944V154.218C129.813 161.205 133.682 165.075 140.69 165.075H157.963C164.972 165.075 168.82 161.205 168.82 154.218C168.82 153.246 169.608 152.456 170.582 152.456C171.556 152.456 172.344 153.246 172.344 154.218C172.351 163.096 166.842 168.605 157.97 168.605H140.69C131.798 168.605 126.289 163.096 126.289 154.225V136.951C126.289 128.052 131.798 122.543 140.69 122.543H157.963C166.801 122.543 172.351 128.052 172.351 136.944V142.861ZM146.587 148.598L156.297 138.886C156.972 138.211 158.066 138.211 158.741 138.886C159.416 139.56 159.416 140.654 158.741 141.329L147.808 152.262C147.483 152.585 147.043 152.767 146.587 152.767C146.127 152.767 145.689 152.585 145.364 152.262L139.899 146.795C139.224 146.12 139.224 145.026 139.899 144.351C140.574 143.676 141.668 143.676 142.343 144.351L146.587 148.598Z" fill="#145AE3"/>
</g>
<path opacity="0.4" d="M117.212 47.1992H72.998C55.71 47.1992 44.0827 59.3366 44.0827 77.3897V119.055C44.0827 137.057 55.71 149.194 72.998 149.194H117.212C134.5 149.194 146.077 137.057 146.077 119.055V77.3897C146.077 59.3366 134.5 47.1992 117.212 47.1992" fill="url(#paint0_linear_2659_9383)"/>
<path d="M89.0265 114.756C87.8842 114.756 86.7418 114.322 85.8698 113.45L73.7682 101.348C72.0241 99.6042 72.0241 96.7789 73.7682 95.0399C75.5123 93.2958 78.3324 93.2907 80.0765 95.0348L89.0265 103.985L110.078 82.9331C111.822 81.189 114.642 81.189 116.386 82.9331C118.13 84.6772 118.13 87.5025 116.386 89.2466L92.1832 113.45C91.3112 114.322 90.1688 114.756 89.0265 114.756" fill="url(#paint1_linear_2659_9383)"/>
<path d="M6 10H20.6667C24.7167 10 28 13.2832 28 17.3333V32H13.3333C9.28323 32 6 28.7167 6 24.6666V10Z" fill="url(#paint2_linear_2659_9383)"/>
<path opacity="0.5" d="M48.5333 17.332L48.5333 27.1098C48.5333 29.8099 46.3444 31.9987 43.6444 31.9987L33.8666 31.9987L33.8666 22.2209C33.8666 19.5209 36.0554 17.332 38.7555 17.332L48.5333 17.332Z" fill="url(#paint3_linear_2659_9383)"/>
<path d="M192 47H182C179.239 47 177 49.2386 177 52V62H187C189.761 62 192 59.7614 192 57V47Z" fill="url(#paint4_linear_2659_9383)"/>
<defs>
<linearGradient id="paint0_linear_2659_9383" x1="30.8915" y1="158.487" x2="177.457" y2="107.263" gradientUnits="userSpaceOnUse">
<stop stop-color="#145AE3"/>
<stop offset="1" stop-color="#15AEEF"/>
</linearGradient>
<linearGradient id="paint1_linear_2659_9383" x1="66.6098" y1="117.774" x2="126.023" y2="89.423" gradientUnits="userSpaceOnUse">
<stop stop-color="#145AE3"/>
<stop offset="1" stop-color="#15AEEF"/>
</linearGradient>
<linearGradient id="paint2_linear_2659_9383" x1="3.15467" y1="34.0044" x2="34.7686" y2="22.9553" gradientUnits="userSpaceOnUse">
<stop stop-color="#145AE3"/>
<stop offset="1" stop-color="#15AEEF"/>
</linearGradient>
<linearGradient id="paint3_linear_2659_9383" x1="32.5303" y1="15.4351" x2="39.8964" y2="36.5111" gradientUnits="userSpaceOnUse">
<stop stop-color="#145AE3"/>
<stop offset="1" stop-color="#15AEEF"/>
</linearGradient>
<linearGradient id="paint4_linear_2659_9383" x1="193.94" y1="63.3667" x2="172.385" y2="55.8332" gradientUnits="userSpaceOnUse">
<stop stop-color="#145AE3"/>
<stop offset="1" stop-color="#15AEEF"/>
</linearGradient>
</defs>
</svg>
