<svg width="200" height="200" viewBox="0 0 200 200" fill="none" xmlns="http://www.w3.org/2000/svg">
<path opacity="0.4" d="M95.9725 130.999L62.8505 147.544C60.3492 148.902 57.2291 147.995 55.8301 145.504C55.4215 144.721 55.2055 143.85 55.2001 142.966V105.934C55.2001 109.605 57.2702 111.871 62.7155 114.41L95.9725 130.999Z" fill="url(#paint0_linear_2659_9384)"/>
<path fill-rule="evenodd" clip-rule="evenodd" d="M80.1766 46.1992H111.678C125.494 46.1992 136.7 51.6385 136.835 65.5539V142.972C136.829 143.843 136.613 144.698 136.205 145.465C135.549 146.717 134.416 147.645 133.067 148.039C131.717 148.432 130.267 148.256 129.05 147.551L95.9725 131.006L62.7155 114.416C57.2702 111.878 55.2001 109.612 55.2001 105.94V65.5539C55.2001 51.6385 66.4057 46.1992 80.1766 46.1992ZM76.7565 85.0777H115.144C117.356 85.0777 119.149 83.2715 119.149 81.0436C119.149 78.8156 117.356 77.0095 115.144 77.0095H76.7565C74.5444 77.0095 72.7512 78.8156 72.7512 81.0436C72.7512 83.2715 74.5444 85.0777 76.7565 85.0777Z" fill="url(#paint1_linear_2659_9384)"/>
<path opacity="0.5" d="M18 16H31.3333C35.0152 16 38 18.9848 38 22.6667V36H24.6667C20.9848 36 18 33.0152 18 29.3333V16Z" fill="url(#paint2_linear_2659_9384)"/>
<g opacity="0.5">
<path d="M63.2553 126.453H48.0391C41.7624 126.453 37.8253 130.835 37.8253 137.865V166.88C37.8253 168.924 39.4432 170.58 41.4391 170.58C42.0434 170.58 42.6381 170.426 43.1699 170.132L55.5521 163.258L69.9695 170.171C70.3604 170.339 70.8006 170.341 71.193 170.177C71.5854 170.013 71.8979 169.695 72.0617 169.295C72.3034 168.557 72.0105 167.747 71.358 167.348L57.0357 160.493C56.1 159.966 54.9662 159.966 54.0305 160.493L41.6293 167.348C41.4871 167.427 41.315 167.427 41.1728 167.348C41.0376 167.258 40.9581 167.103 40.9636 166.939V137.865C40.9826 132.665 43.5313 129.705 48.0962 129.705H63.3124C69.1706 129.705 70.0265 134.574 70.0265 137.495V138.819H53.555C53.1362 138.834 52.7405 139.019 52.4551 139.333C52.1697 139.647 52.018 140.065 52.0334 140.494C52.0534 141.345 52.7231 142.031 53.555 142.051H69.9695V159.091C69.9695 159.983 70.6763 160.707 71.5482 160.707C72.4127 160.707 73.1164 159.995 73.1268 159.11V159.11V137.495C73.1268 130.679 69.3608 126.453 63.2553 126.453Z" fill="#145AE3"/>
</g>
<path d="M179 179.535L179 164.869C179 160.818 175.717 157.535 171.667 157.535L157 157.535L157 172.202C157 176.252 160.283 179.535 164.333 179.535L179 179.535Z" fill="url(#paint3_linear_2659_9384)"/>
<path opacity="0.5" d="M171.667 137L161.889 137C159.189 137 157 139.189 157 141.889L157 151.667L166.778 151.667C169.478 151.667 171.667 149.478 171.667 146.778L171.667 137Z" fill="url(#paint4_linear_2659_9384)"/>
<defs>
<linearGradient id="paint0_linear_2659_9384" x1="49.9268" y1="152.023" x2="108.956" y2="132.109" gradientUnits="userSpaceOnUse">
<stop stop-color="#145AE3"/>
<stop offset="1" stop-color="#15AEEF"/>
</linearGradient>
<linearGradient id="paint1_linear_2659_9384" x1="44.642" y1="157.541" x2="166.736" y2="123.404" gradientUnits="userSpaceOnUse">
<stop stop-color="#145AE3"/>
<stop offset="1" stop-color="#15AEEF"/>
</linearGradient>
<linearGradient id="paint2_linear_2659_9384" x1="15.4133" y1="37.8222" x2="44.1533" y2="27.7776" gradientUnits="userSpaceOnUse">
<stop stop-color="#145AE3"/>
<stop offset="1" stop-color="#15AEEF"/>
</linearGradient>
<linearGradient id="paint3_linear_2659_9384" x1="154.996" y1="182.38" x2="166.045" y2="150.767" gradientUnits="userSpaceOnUse">
<stop stop-color="#145AE3"/>
<stop offset="1" stop-color="#15AEEF"/>
</linearGradient>
<linearGradient id="paint4_linear_2659_9384" x1="173.564" y1="153.003" x2="152.488" y2="145.637" gradientUnits="userSpaceOnUse">
<stop stop-color="#145AE3"/>
<stop offset="1" stop-color="#15AEEF"/>
</linearGradient>
</defs>
</svg>
