<svg width="24" height="24" viewBox="0 0 24 24" fill="none" xmlns="http://www.w3.org/2000/svg">
<path fill-rule="evenodd" clip-rule="evenodd" d="M3.70716 11.1771C3.3078 11.2321 3 11.5795 3 11.9999C3 12.4585 3.36631 12.8302 3.81818 12.8302H18.1999L13.0047 18.0813L12.9253 18.1743C12.687 18.4989 12.7124 18.9602 13.0023 19.2556C13.3212 19.5805 13.8392 19.5816 14.1594 19.258L20.7477 12.5996C20.787 12.5614 20.8224 12.5194 20.8536 12.474C21.0766 12.1498 21.0452 11.6999 20.7593 11.4111L14.1593 4.74193L14.0674 4.66174C13.7466 4.42125 13.2921 4.44905 13.0023 4.74446C12.6834 5.06942 12.6845 5.59515 13.0047 5.91871L18.2012 11.1696L3.81818 11.1696L3.70716 11.1771Z" fill="#01A98E"/>
<path d="M3.70716 11.1771L3.6731 10.6783L3.65597 10.6795L3.63897 10.6818L3.70716 11.1771ZM18.1999 12.8302L18.5554 13.1819L19.398 12.3302H18.1999V12.8302ZM13.0047 18.0813L12.6493 17.7297L12.6364 17.7427L12.6245 17.7566L13.0047 18.0813ZM12.9253 18.1743L12.5451 17.8495L12.5332 17.8635L12.5223 17.8784L12.9253 18.1743ZM13.0023 19.2556L13.3592 18.9054V18.9054L13.0023 19.2556ZM14.1594 19.258L14.5148 19.6097V19.6097L14.1594 19.258ZM20.7477 12.5996L20.3991 12.241L20.3923 12.2479L20.7477 12.5996ZM20.8536 12.474L20.4416 12.1906L20.4414 12.191L20.8536 12.474ZM20.7593 11.4111L20.4039 11.7628V11.7628L20.7593 11.4111ZM14.1593 4.74193L14.5147 4.39023L14.5018 4.37719L14.488 4.36514L14.1593 4.74193ZM14.0674 4.66174L14.3961 4.28494L14.3821 4.27277L14.3673 4.26166L14.0674 4.66174ZM13.0023 4.74446L13.3592 5.09463L13.0023 4.74446ZM13.0047 5.91871L12.6494 6.27041L12.6494 6.27042L13.0047 5.91871ZM18.2012 11.1696V11.6696H19.3995L18.5566 10.8179L18.2012 11.1696ZM3.81818 11.1696V10.6696H3.80113L3.78412 10.6707L3.81818 11.1696ZM3.5 11.9999C3.5 11.8271 3.62563 11.6931 3.77535 11.6725L3.63897 10.6818C2.98998 10.7712 2.5 11.3319 2.5 11.9999H3.5ZM3.81818 12.3302C3.64937 12.3302 3.5 12.1893 3.5 11.9999H2.5C2.5 12.7276 3.08325 13.3302 3.81818 13.3302V12.3302ZM18.1999 12.3302H3.81818V13.3302H18.1999V12.3302ZM13.3601 18.433L18.5554 13.1819L17.8445 12.4786L12.6493 17.7297L13.3601 18.433ZM13.3055 18.4991L13.3849 18.4061L12.6245 17.7566L12.5451 17.8495L13.3055 18.4991ZM13.3592 18.9054C13.244 18.788 13.2325 18.6007 13.3283 18.4702L12.5223 17.8784C12.1414 18.397 12.1808 19.1324 12.6454 19.6058L13.3592 18.9054ZM13.804 18.9063C13.6801 19.0316 13.4826 19.0312 13.3592 18.9054L12.6454 19.6058C13.1597 20.1299 13.9983 20.1316 14.5148 19.6097L13.804 18.9063ZM20.3923 12.2479L13.804 18.9063L14.5148 19.6097L21.1032 12.9512L20.3923 12.2479ZM20.4414 12.191C20.4289 12.2091 20.4148 12.2259 20.3992 12.2411L21.0963 12.9581C21.1591 12.8969 21.216 12.8296 21.2658 12.757L20.4414 12.191ZM20.4039 11.7628C20.5173 11.8774 20.5315 12.06 20.4416 12.1906L21.2655 12.7574C21.6217 12.2396 21.5731 11.5225 21.1147 11.0594L20.4039 11.7628ZM13.8039 5.09364L20.4039 11.7628L21.1147 11.0594L14.5147 4.39023L13.8039 5.09364ZM13.7387 5.03853L13.8307 5.11873L14.488 4.36514L14.3961 4.28494L13.7387 5.03853ZM13.3592 5.09463C13.4715 4.98013 13.6449 4.96991 13.7675 5.06181L14.3673 4.26166C13.8483 3.8726 13.1127 3.91796 12.6453 4.39429L13.3592 5.09463ZM13.3601 5.567C13.2322 5.4377 13.2317 5.22455 13.3592 5.09463L12.6453 4.39429C12.1352 4.91429 12.1369 5.7526 12.6494 6.27041L13.3601 5.567ZM18.5566 10.8179L13.3601 5.567L12.6494 6.27042L17.8458 11.5213L18.5566 10.8179ZM3.81818 11.6696H18.2012V10.6696L3.81818 10.6696V11.6696ZM3.74122 11.676L3.85224 11.6684L3.78412 10.6707L3.6731 10.6783L3.74122 11.676Z" fill="#01A98E"/>
</svg>
