<svg width="24" height="24" viewBox="0 0 24 24" fill="none" xmlns="http://www.w3.org/2000/svg">
<path fill-rule="evenodd" clip-rule="evenodd" d="M20.2928 11.1771C20.6922 11.2321 21 11.5795 21 11.9999C21 12.4585 20.6337 12.8302 20.1818 12.8302L5.80007 12.8302L10.9953 18.0813L11.0747 18.1743C11.313 18.4989 11.2876 18.9602 10.9977 19.2556C10.6788 19.5805 10.1608 19.5816 9.84062 19.258L3.25226 12.5996C3.21304 12.5614 3.17756 12.5194 3.14642 12.474C2.92336 12.1498 2.95478 11.6999 3.24067 11.4111L9.84067 4.74193L9.9326 4.66174C10.2534 4.42125 10.7079 4.44905 10.9977 4.74446C11.3166 5.06942 11.3155 5.59515 10.9953 5.91871L5.79877 11.1696L20.1818 11.1696L20.2928 11.1771Z" fill="#01A98E"/>
<path d="M20.2928 11.1771L20.3269 10.6783L20.344 10.6795L20.361 10.6818L20.2928 11.1771ZM5.80007 12.8302L5.44463 13.1819L4.60203 12.3302H5.80007V12.8302ZM10.9953 18.0813L11.3507 17.7297L11.3636 17.7427L11.3755 17.7566L10.9953 18.0813ZM11.0747 18.1743L11.4549 17.8495L11.4668 17.8635L11.4777 17.8784L11.0747 18.1743ZM10.9977 19.2556L10.6408 18.9054V18.9054L10.9977 19.2556ZM9.84062 19.258L9.4852 19.6097V19.6097L9.84062 19.258ZM3.25226 12.5996L3.60086 12.241L3.60768 12.2479L3.25226 12.5996ZM3.14642 12.474L3.55836 12.1906L3.55861 12.191L3.14642 12.474ZM3.24067 11.4111L3.59606 11.7628V11.7628L3.24067 11.4111ZM9.84067 4.74193L9.48528 4.39023L9.49818 4.37719L9.512 4.36514L9.84067 4.74193ZM9.9326 4.66174L9.60393 4.28494L9.61789 4.27277L9.63271 4.26166L9.9326 4.66174ZM10.9977 4.74446L10.6408 5.09463L10.9977 4.74446ZM10.9953 5.91871L11.3506 6.27041L11.3506 6.27042L10.9953 5.91871ZM5.79877 11.1696V11.6696H4.60049L5.44338 10.8179L5.79877 11.1696ZM20.1818 11.1696V10.6696H20.1989L20.2159 10.6707L20.1818 11.1696ZM20.5 11.9999C20.5 11.8271 20.3744 11.6931 20.2246 11.6725L20.361 10.6818C21.01 10.7712 21.5 11.3319 21.5 11.9999H20.5ZM20.1818 12.3302C20.3506 12.3302 20.5 12.1893 20.5 11.9999H21.5C21.5 12.7276 20.9167 13.3302 20.1818 13.3302V12.3302ZM5.80007 12.3302L20.1818 12.3302V13.3302L5.80007 13.3302V12.3302ZM10.6399 18.433L5.44463 13.1819L6.15551 12.4786L11.3507 17.7297L10.6399 18.433ZM10.6945 18.4991L10.6151 18.4061L11.3755 17.7566L11.4549 17.8495L10.6945 18.4991ZM10.6408 18.9054C10.756 18.788 10.7675 18.6007 10.6717 18.4702L11.4777 17.8784C11.8586 18.397 11.8192 19.1324 11.3546 19.6058L10.6408 18.9054ZM10.196 18.9063C10.3199 19.0316 10.5174 19.0312 10.6408 18.9054L11.3546 19.6058C10.8403 20.1299 10.0017 20.1316 9.4852 19.6097L10.196 18.9063ZM3.60768 12.2479L10.196 18.9063L9.4852 19.6097L2.89684 12.9512L3.60768 12.2479ZM3.55861 12.191C3.57107 12.2091 3.58523 12.2259 3.6008 12.2411L2.90372 12.9581C2.84086 12.8969 2.78404 12.8296 2.73422 12.757L3.55861 12.191ZM3.59606 11.7628C3.48266 11.8774 3.46846 12.06 3.55836 12.1906L2.73447 12.7574C2.37827 12.2396 2.42691 11.5225 2.88528 11.0594L3.59606 11.7628ZM10.1961 5.09364L3.59606 11.7628L2.88528 11.0594L9.48528 4.39023L10.1961 5.09364ZM10.2613 5.03853L10.1693 5.11873L9.512 4.36514L9.60393 4.28494L10.2613 5.03853ZM10.6408 5.09463C10.5285 4.98013 10.3551 4.96991 10.2325 5.06181L9.63271 4.26166C10.1517 3.8726 10.8873 3.91796 11.3547 4.39429L10.6408 5.09463ZM10.6399 5.567C10.7678 5.4377 10.7683 5.22455 10.6408 5.09463L11.3547 4.39429C11.8648 4.91429 11.8631 5.7526 11.3506 6.27041L10.6399 5.567ZM5.44338 10.8179L10.6399 5.567L11.3506 6.27042L6.15416 11.5213L5.44338 10.8179ZM20.1818 11.6696L5.79877 11.6696V10.6696L20.1818 10.6696V11.6696ZM20.2588 11.676L20.1478 11.6684L20.2159 10.6707L20.3269 10.6783L20.2588 11.676Z" fill="#01A98E"/>
</svg>
