<svg width="20" height="21" viewBox="0 0 20 21" fill="none" xmlns="http://www.w3.org/2000/svg">
<g opacity="0.8" clip-path="url(#clip0)">
<path d="M11.3503 20.0001H8.14121C7.60519 20.0001 7.16916 19.564 7.16916 19.028V11.7898H5.29691C4.76089 11.7898 4.32486 11.3536 4.32486 10.8177V7.7161C4.32486 7.18009 4.76089 6.74405 5.29691 6.74405H7.16916V5.19088C7.16916 3.65085 7.65274 2.34062 8.56746 1.40205C9.48631 0.459195 10.7704 -0.0390625 12.2809 -0.0390625L14.7283 -0.0350875C15.2634 -0.0341701 15.6987 0.401862 15.6987 0.936965V3.81674C15.6987 4.35276 15.2628 4.78879 14.727 4.78879L13.0791 4.7894C12.5766 4.7894 12.4486 4.89015 12.4213 4.92103C12.3762 4.97225 12.3225 5.11703 12.3225 5.51683V6.7439H14.6031C14.7748 6.7439 14.9411 6.78625 15.0841 6.86606C15.3925 7.03836 15.5842 7.36416 15.5842 7.71626L15.583 10.8179C15.583 11.3536 15.1469 11.7896 14.6109 11.7896H12.3225V19.028C12.3225 19.564 11.8863 20.0001 11.3503 20.0001ZM8.34394 18.8253H11.1476V11.2638C11.1476 10.9059 11.4388 10.6148 11.7966 10.6148H14.4082L14.4093 7.91883H11.7964C11.4387 7.91883 11.1476 7.62774 11.1476 7.26983V5.51683C11.1476 5.05787 11.1942 4.53591 11.5406 4.14361C11.9592 3.66935 12.619 3.61462 13.0788 3.61462L14.5239 3.61401V1.13939L12.28 1.13572C9.85247 1.13572 8.34394 2.68966 8.34394 5.19088V7.26983C8.34394 7.62758 8.05284 7.91883 7.69509 7.91883H5.49964V10.6148H7.69509C8.05284 10.6148 8.34394 10.9059 8.34394 11.2638V18.8253ZM14.726 1.13969H14.7262H14.726Z" fill="white"/>
</g>
<defs>
<clipPath id="clip0">
<rect width="20" height="20.0391" fill="white"/>
</clipPath>
</defs>
</svg>
