<svg width="76" height="76" viewBox="0 0 76 76" fill="none" xmlns="http://www.w3.org/2000/svg">
<g id="Iconly/Bulk/Heart">
<g id="Heart">
<path id="Path_34179" opacity="0.4" d="M37.2999 68.742C30.1654 64.3353 23.5332 59.1392 17.5247 53.2487C13.2828 49.043 10.0433 43.9077 8.05366 38.2352C4.49855 27.1726 8.63691 14.5296 20.191 10.7762C26.2895 8.86103 32.9221 10.0367 38.022 13.937V13.937C43.1239 10.0411 49.7543 8.86578 55.8531 10.7762C67.4072 14.5296 71.5733 27.1726 68.0182 38.2352C66.0447 43.9024 62.8245 49.0372 58.6027 53.2487C52.5887 59.1328 45.9573 64.3283 38.8275 68.742L38.0498 69.25L37.2999 68.742Z" fill="url(#paint0_linear_2656_9263)"/>
<path id="Path_34178" d="M38.0341 69.2488L37.3 68.7408C30.1567 64.3345 23.5152 59.1384 17.4969 53.2475C13.235 49.0476 9.9762 43.9118 7.97037 38.234C4.44305 27.1714 8.58141 14.5284 20.1355 10.775C26.2339 8.8598 32.954 10.0364 38.0341 13.9693V69.2488Z" fill="url(#paint1_linear_2656_9263)"/>
<path id="Path_34180" d="M57.4701 31.7476V31.7476C56.8424 31.7072 56.2578 31.3934 55.8533 30.8799C55.4488 30.3664 55.26 29.6981 55.331 29.0317V29.0317C55.3989 26.8369 54.15 24.8391 52.2241 24.0618C51.0029 23.7284 50.2634 22.4058 50.5689 21.1015C50.8587 19.8182 52.0605 19.0202 53.2682 19.3091C53.4208 19.3344 53.5676 19.3896 53.7012 19.472C57.5627 20.9581 60.0629 24.9575 59.8639 29.3305C59.8576 29.9933 59.5992 30.6249 59.1479 31.0807C58.6966 31.5364 58.091 31.7771 57.4701 31.7476Z" fill="url(#paint2_linear_2656_9263)"/>
</g>
</g>
<defs>
<linearGradient id="paint0_linear_2656_9263" x1="-1.2564" y1="74.6597" x2="87.4383" y2="42.0648" gradientUnits="userSpaceOnUse">
<stop stop-color="#145AE3"/>
<stop offset="1" stop-color="#15AEEF"/>
</linearGradient>
<linearGradient id="paint1_linear_2656_9263" x1="2.70393" y1="74.6584" x2="51.4958" y2="65.6732" gradientUnits="userSpaceOnUse">
<stop stop-color="#145AE3"/>
<stop offset="1" stop-color="#15AEEF"/>
</linearGradient>
<linearGradient id="paint2_linear_2656_9263" x1="49.2875" y1="32.8889" x2="63.433" y2="29.181" gradientUnits="userSpaceOnUse">
<stop stop-color="#145AE3"/>
<stop offset="1" stop-color="#15AEEF"/>
</linearGradient>
</defs>
</svg>
