<svg width="76" height="76" viewBox="0 0 76 76" fill="none" xmlns="http://www.w3.org/2000/svg">
<g id="Iconly/Bulk/Send">
<g id="Send">
<path id="Fill 1" d="M67.7107 8.55718C66.1482 6.96031 63.8357 6.36968 61.6794 6.99468L11.3982 21.5228C9.12319 22.1541 7.51069 23.9572 7.07631 26.2447C6.63256 28.5759 8.18256 31.5384 10.2076 32.7759L25.9294 42.3759C27.5419 43.3634 29.6232 43.1166 30.9576 41.7791L48.9607 23.7759C49.8669 22.8353 51.3669 22.8353 52.2732 23.7759C53.1794 24.6791 53.1794 26.1509 52.2732 27.0884L34.2388 45.0916C32.9013 46.4291 32.6513 48.5041 33.6357 50.1197L43.2419 65.9009C44.3669 67.7728 46.3044 68.8384 48.4294 68.8384C48.6794 68.8384 48.9607 68.8384 49.2107 68.8041C51.6482 68.4947 53.5857 66.8353 54.3044 64.4916L69.2107 14.5884C69.8669 12.4634 69.2732 10.1509 67.7107 8.55718" fill="url(#paint0_linear_2656_9256)"/>
<path id="Combined Shape" opacity="0.4" fill-rule="evenodd" clip-rule="evenodd" d="M10.1578 53.0195C9.55779 53.0195 8.95779 52.7914 8.50154 52.332C7.58591 51.4164 7.58591 49.9352 8.50154 49.0195L12.7672 44.7508C13.6828 43.8383 15.1672 43.8383 16.0828 44.7508C16.9953 45.6664 16.9953 47.1508 16.0828 48.0664L11.814 52.332C11.3578 52.7914 10.7578 53.0195 10.1578 53.0195ZM21.9116 56.7427C21.3116 56.7427 20.7116 56.5146 20.2554 56.0552C19.3398 55.1396 19.3398 53.6583 20.2554 52.7427L24.521 48.4739C25.4366 47.5614 26.921 47.5614 27.8366 48.4739C28.7491 49.3896 28.7491 50.8739 27.8366 51.7896L23.5679 56.0552C23.1116 56.5146 22.5116 56.7427 21.9116 56.7427ZM22.7043 67.8958C23.1606 68.3552 23.7606 68.5833 24.3606 68.5833C24.9606 68.5833 25.5606 68.3552 26.0168 67.8958L30.2856 63.6302C31.1981 62.7145 31.1981 61.2302 30.2856 60.3145C29.37 59.402 27.8856 59.402 26.97 60.3145L22.7043 64.5833C21.7887 65.4989 21.7887 66.9802 22.7043 67.8958Z" fill="url(#paint1_linear_2656_9256)"/>
</g>
</g>
<defs>
<linearGradient id="paint0_linear_2656_9256" x1="-1.08002" y1="74.4954" x2="88.5738" y2="42.9664" gradientUnits="userSpaceOnUse">
<stop stop-color="#145AE3"/>
<stop offset="1" stop-color="#15AEEF"/>
</linearGradient>
<linearGradient id="paint1_linear_2656_9256" x1="4.82009" y1="70.817" x2="38.4898" y2="59.703" gradientUnits="userSpaceOnUse">
<stop stop-color="#145AE3"/>
<stop offset="1" stop-color="#15AEEF"/>
</linearGradient>
</defs>
</svg>
