<svg width="20" height="20" viewBox="0 0 20 20" fill="none" xmlns="http://www.w3.org/2000/svg">
<g opacity="0.8">
<path d="M0.39417 16.3288C2.24584 17.5038 4.40084 18.1247 6.62584 18.1247C9.88417 18.1247 12.87 16.873 15.0342 14.6005C17.105 12.4255 18.2442 9.503 18.1875 6.53717C18.9725 5.8655 19.8958 4.583 19.8958 3.333C19.8958 2.85383 19.3758 2.54967 18.9542 2.79383C18.2167 3.22717 17.5442 3.3405 16.8525 3.14633C15.44 1.76967 13.3375 1.47967 11.5658 2.43467C10.0175 3.268 9.15667 4.793 9.23417 6.45967C6.61834 6.1405 4.20167 4.82883 2.51667 2.7905C2.24 2.458 1.715 2.49717 1.495 2.87383C0.683337 4.26383 0.691671 5.87467 1.3975 7.1755C1.06167 7.23467 0.85417 7.51717 0.85417 7.823C0.85417 9.1305 1.4425 10.3322 2.39 11.1522C2.21334 11.3222 2.155 11.5747 2.23 11.7997C2.64667 13.0513 3.59 14.0297 4.76917 14.5197C3.48667 15.1322 2.06834 15.3363 0.805837 15.1813C0.152504 15.093 -0.169996 15.9713 0.39417 16.3288ZM6.79667 14.7338C7.26417 14.3747 7.01584 13.6263 6.42917 13.6138C5.39584 13.5922 4.455 13.083 3.86917 12.2822C4.15167 12.2638 4.44417 12.2205 4.7225 12.1455C5.35667 11.9738 5.32667 11.0588 4.6825 10.9297C3.51334 10.6947 2.59584 9.843 2.25167 8.74633C2.56584 8.82383 2.88584 8.86717 3.205 8.873C3.8375 8.87633 4.07667 8.0655 3.56084 7.72633C2.39834 6.9605 1.9025 5.608 2.23084 4.33633C4.26084 6.393 7.015 7.63217 9.92834 7.77217C10.3458 7.798 10.6592 7.4055 10.5675 7.008C10.1717 5.29217 11.13 4.08967 12.1592 3.5355C13.1775 2.9855 14.8125 2.81383 16.0658 4.12883C16.4383 4.52133 17.695 4.53633 18.3342 4.38717C18.0475 4.92717 17.6067 5.43967 17.1942 5.728C17.0183 5.85133 16.9175 6.05633 16.9283 6.2705C17.0625 9.008 16.0425 11.7297 14.13 13.7372C12.2033 15.7597 9.53917 16.8738 6.62667 16.8738C5.46834 16.8738 4.3325 16.6855 3.25917 16.3222C4.5425 16.0738 5.76167 15.5305 6.79667 14.7338Z" fill="white"/>
</g>
</svg>
