<svg width="76" height="76" viewBox="0 0 76 76" fill="none" xmlns="http://www.w3.org/2000/svg">
<g id="Iconly/Bulk/Wallet">
<g id="Wallet">
<path id="Fill 1" fill-rule="evenodd" clip-rule="evenodd" d="M68.9889 26.6723H55.7556C49.5972 26.6831 44.6083 31.5473 44.5972 37.5518C44.5889 43.5698 49.5833 48.4556 55.7556 48.4638H69V49.4198C69 59.9174 62.6361 66.125 51.8667 66.125H23.6361C12.8639 66.125 6.5 59.9174 6.5 49.4198V26.5558C6.5 16.0582 12.8639 9.875 23.6361 9.875H51.8556C62.625 9.875 68.9889 16.0582 68.9889 26.5558V26.6723ZM21.3111 26.6479H38.9361H38.9472H38.9694C40.2889 26.6425 41.3555 25.5943 41.35 24.3052C41.3444 23.0187 40.2667 21.9787 38.9472 21.9841H21.3111C20 21.9895 18.9361 23.0268 18.9305 24.3079C18.925 25.5943 19.9917 26.6425 21.3111 26.6479Z" fill="url(#paint0_linear_2656_9268)"/>
<path id="Fill 4" opacity="0.4" d="M50.3669 38.9232C51.0204 41.8956 53.6265 43.9869 56.6018 43.9326H66.7579C67.9958 43.9326 69 42.9073 69 41.64V33.7289C68.9973 32.4643 67.9958 31.4363 66.7579 31.4336H56.3627C52.9783 31.4445 50.2447 34.2537 50.25 37.7157C50.25 38.1209 50.2899 38.5261 50.3669 38.9232" fill="url(#paint1_linear_2656_9268)"/>
<circle id="Oval" cx="56.5" cy="37.6836" r="3.125" fill="url(#paint2_linear_2656_9268)"/>
</g>
</g>
<defs>
<linearGradient id="paint0_linear_2656_9268" x1="-1.58333" y1="71.25" x2="85.9928" y2="37.2411" gradientUnits="userSpaceOnUse">
<stop stop-color="#145AE3"/>
<stop offset="1" stop-color="#15AEEF"/>
</linearGradient>
<linearGradient id="paint1_linear_2656_9268" x1="47.825" y1="45.0725" x2="71.5416" y2="32.639" gradientUnits="userSpaceOnUse">
<stop stop-color="#145AE3"/>
<stop offset="1" stop-color="#15AEEF"/>
</linearGradient>
<linearGradient id="paint2_linear_2656_9268" x1="52.5667" y1="41.378" x2="61.5479" y2="38.2391" gradientUnits="userSpaceOnUse">
<stop stop-color="#145AE3"/>
<stop offset="1" stop-color="#15AEEF"/>
</linearGradient>
</defs>
</svg>
