<svg width="95" height="95" viewBox="0 0 95 95" fill="none" xmlns="http://www.w3.org/2000/svg">
<path fill-rule="evenodd" clip-rule="evenodd" d="M78.8389 16.9939C80.3243 17.0954 80.8291 15.0525 79.4674 14.4506L47.711 0.411424C47.2967 0.228278 46.8177 0.268563 46.4399 0.518327L15.3344 21.0784C14.9619 21.3247 14.7378 21.7414 14.7378 22.188V74.1578C14.7378 74.5977 14.9553 75.0091 15.3188 75.2569L26.0657 82.5807C26.9486 83.1823 28.1447 82.55 28.1447 81.4816V29.1398C28.1447 28.684 28.3781 28.2599 28.7632 28.0161L48.9861 15.2111C49.2251 15.0597 49.5061 14.9885 49.7883 15.0078L78.8389 16.9939ZM33.8604 32.0091C33.8589 31.5196 34.1266 31.0688 34.5571 30.8357L45.4126 24.9576C46.2988 24.4778 47.3759 25.1194 47.3759 26.1272V36.93C47.3759 37.6646 47.9714 38.26 48.7059 38.26H56.6252C57.6238 38.26 58.2662 39.3194 57.8046 40.2048L52.1323 51.0858C51.9032 51.5254 51.4487 51.801 50.953 51.801H48.7059C47.9714 51.801 47.3759 52.3965 47.3759 53.131V77.5241C47.3759 78.4333 48.2678 79.0744 49.1296 78.7848L73.2986 70.6628C74.7394 70.1786 75.7343 72.0999 74.5073 72.9971L45.1738 94.4459C44.716 94.7807 44.0962 94.7883 43.6303 94.4648L34.5929 88.19C34.236 87.9422 34.0227 87.5358 34.0214 87.1014L33.8604 32.0091Z" fill="white" fill-opacity="0.9"/>
</svg>
