<svg width="396" height="108" viewBox="0 0 396 108" fill="none" xmlns="http://www.w3.org/2000/svg">
<path fill-rule="evenodd" clip-rule="evenodd" d="M69.6743 18.7691C72.1013 18.935 72.9262 15.5969 70.7012 14.6133L38.0659 0.185582C37.389 -0.113683 36.6063 -0.0478596 35.9888 0.360259L0.974892 23.5038C0.366176 23.9061 0 24.5871 0 25.3168V84.1063C0 84.8251 0.355411 85.4974 0.949393 85.9022L11.9482 93.3977C13.3908 94.3808 15.3453 93.3476 15.3453 91.6018V33.282C15.3453 32.5372 15.7267 31.8443 16.3559 31.4459L39.0199 17.0951C39.4105 16.8479 39.8697 16.7315 40.3308 16.7631L69.6743 18.7691ZM21.8885 36.5969C21.8861 35.797 22.3234 35.0604 23.0269 34.6795L34.1489 28.6572C35.5969 27.8731 37.357 28.9215 37.357 30.5682V41.1895C37.357 42.3898 38.33 43.3628 39.5302 43.3628H46.8703C48.5019 43.3628 49.5516 45.0938 48.7974 46.5406L42.9837 57.6929C42.6093 58.4111 41.8665 58.8615 41.0566 58.8615H39.5302C38.33 58.8615 37.357 59.8345 37.357 61.0348V87.398C37.357 88.8836 38.8143 89.9312 40.2225 89.458L63.0416 81.7896C65.3959 80.9984 67.0215 84.138 65.0167 85.6039L35.211 107.398C34.4628 107.945 33.4501 107.957 32.6888 107.429L23.0044 100.705C22.4213 100.3 22.0727 99.636 22.0706 98.9261L21.8885 36.5969Z" fill="white" fill-opacity="0.9"/>
<path d="M111.514 56.4347C108.93 56.4347 106.588 55.8792 104.486 54.7683C102.409 53.6332 100.767 52.0755 99.5596 50.0951C98.3762 48.0906 97.7845 45.8325 97.7845 43.3208C97.7845 40.8091 98.3762 38.563 99.5596 36.5827C100.767 34.5781 102.409 33.0204 104.486 31.9095C106.588 30.7744 108.942 30.2068 111.551 30.2068C113.748 30.2068 115.729 30.5933 117.492 31.3661C119.279 32.1389 120.776 33.2499 121.984 34.6989L118.216 38.1766C116.501 36.1963 114.376 35.2061 111.84 35.2061C110.271 35.2061 108.87 35.5563 107.638 36.2566C106.406 36.9329 105.44 37.8868 104.74 39.1185C104.064 40.3502 103.726 41.751 103.726 43.3208C103.726 44.8906 104.064 46.2913 104.74 47.523C105.44 48.7547 106.406 49.7208 107.638 50.4211C108.87 51.0974 110.271 51.4355 111.84 51.4355C114.376 51.4355 116.501 50.4332 118.216 48.4287L121.984 51.9064C120.776 53.3796 119.279 54.5026 117.492 55.2755C115.705 56.0483 113.712 56.4347 111.514 56.4347ZM137.697 56.4347C135.064 56.4347 132.686 55.8672 130.56 54.7321C128.459 53.597 126.805 52.0393 125.597 50.0589C124.414 48.0544 123.822 45.8083 123.822 43.3208C123.822 40.8332 124.414 38.5993 125.597 36.6189C126.805 34.6144 128.459 33.0446 130.56 31.9095C132.686 30.7744 135.064 30.2068 137.697 30.2068C140.329 30.2068 142.696 30.7744 144.797 31.9095C146.898 33.0446 148.553 34.6144 149.76 36.6189C150.968 38.5993 151.572 40.8332 151.572 43.3208C151.572 45.8083 150.968 48.0544 149.76 50.0589C148.553 52.0393 146.898 53.597 144.797 54.7321C142.696 55.8672 140.329 56.4347 137.697 56.4347ZM137.697 51.4355C139.194 51.4355 140.547 51.0974 141.754 50.4211C142.962 49.7208 143.904 48.7547 144.58 47.523C145.28 46.2913 145.631 44.8906 145.631 43.3208C145.631 41.751 145.28 40.3502 144.58 39.1185C143.904 37.8868 142.962 36.9329 141.754 36.2566C140.547 35.5563 139.194 35.2061 137.697 35.2061C136.2 35.2061 134.847 35.5563 133.64 36.2566C132.432 36.9329 131.478 37.8868 130.778 39.1185C130.101 40.3502 129.763 41.751 129.763 43.3208C129.763 44.8906 130.101 46.2913 130.778 47.523C131.478 48.7547 132.432 49.7208 133.64 50.4211C134.847 51.0974 136.2 51.4355 137.697 51.4355ZM179.24 30.6416V56H174.421L161.778 40.6038V56H155.982V30.6416H160.837L173.443 46.0378V30.6416H179.24ZM190.492 35.4234H182.377V30.6416H204.475V35.4234H196.361V56H190.492V35.4234ZM227.268 51.2906V56H207.633V30.6416H226.797V35.351H213.465V40.8574H225.239V45.4219H213.465V51.2906H227.268ZM255.195 30.6416V56H250.376L237.733 40.6038V56H231.937V30.6416H236.792L249.398 46.0378V30.6416H255.195ZM261.194 30.6416H272.714C275.467 30.6416 277.895 31.1729 279.996 32.2355C282.121 33.274 283.763 34.7472 284.923 36.6551C286.106 38.563 286.698 40.7849 286.698 43.3208C286.698 45.8566 286.106 48.0785 284.923 49.9864C283.763 51.8943 282.121 53.3796 279.996 54.4423C277.895 55.4808 275.467 56 272.714 56H261.194V30.6416ZM272.424 51.1819C274.96 51.1819 276.977 50.4815 278.474 49.0808C279.996 47.6559 280.757 45.7359 280.757 43.3208C280.757 40.9057 279.996 38.9978 278.474 37.597C276.977 36.1721 274.96 35.4597 272.424 35.4597H267.063V51.1819H272.424ZM307.47 50.566H295.696L293.45 56H287.437L298.739 30.6416H304.536L315.875 56H309.716L307.47 50.566ZM305.622 46.1102L301.601 36.4015L297.58 46.1102H305.622ZM341.763 30.6416V56H336.945L324.302 40.6038V56H318.505V30.6416H323.36L335.967 46.0378V30.6416H341.763ZM359.898 56.4347C357.314 56.4347 354.972 55.8792 352.87 54.7683C350.793 53.6332 349.151 52.0755 347.944 50.0951C346.76 48.0906 346.169 45.8325 346.169 43.3208C346.169 40.8091 346.76 38.563 347.944 36.5827C349.151 34.5781 350.793 33.0204 352.87 31.9095C354.972 30.7744 357.326 30.2068 359.935 30.2068C362.132 30.2068 364.113 30.5933 365.876 31.3661C367.663 32.1389 369.16 33.2499 370.368 34.6989L366.6 38.1766C364.885 36.1963 362.76 35.2061 360.224 35.2061C358.655 35.2061 357.254 35.5563 356.022 36.2566C354.79 36.9329 353.824 37.8868 353.124 39.1185C352.448 40.3502 352.11 41.751 352.11 43.3208C352.11 44.8906 352.448 46.2913 353.124 47.523C353.824 48.7547 354.79 49.7208 356.022 50.4211C357.254 51.0974 358.655 51.4355 360.224 51.4355C362.76 51.4355 364.885 50.4332 366.6 48.4287L370.368 51.9064C369.16 53.3796 367.663 54.5026 365.876 55.2755C364.089 56.0483 362.096 56.4347 359.898 56.4347ZM393.966 51.2906V56H374.331V30.6416H393.495V35.351H380.163V40.8574H391.937V45.4219H380.163V51.2906H393.966Z" fill="white" fill-opacity="0.9"/>
<path d="M127.519 73.1984H123.172V71.6225H133.659V73.1984H129.312V84.3018H127.519V73.1984ZM140.052 74.6112C141.271 74.6112 142.237 74.9674 142.95 75.6799C143.674 76.3803 144.037 77.4127 144.037 78.7772V84.3018H142.298V78.9765C142.298 78.0467 142.074 77.3463 141.627 76.8754C141.181 76.4044 140.541 76.1689 139.707 76.1689C138.766 76.1689 138.023 76.4467 137.48 77.0021C136.936 77.5455 136.664 78.3304 136.664 79.3569V84.3018H134.926V70.8618H136.664V76.0603C137.027 75.6014 137.498 75.2452 138.077 74.9916C138.669 74.738 139.327 74.6112 140.052 74.6112ZM155.531 79.5561C155.531 79.6889 155.519 79.864 155.495 80.0814H147.706C147.815 80.9267 148.183 81.6089 148.811 82.1282C149.451 82.6353 150.242 82.8889 151.184 82.8889C152.331 82.8889 153.255 82.5025 153.955 81.7297L154.915 82.8527C154.48 83.3599 153.937 83.7463 153.285 84.0119C152.645 84.2776 151.926 84.4104 151.13 84.4104C150.115 84.4104 149.216 84.2052 148.431 83.7946C147.646 83.3719 147.036 82.7863 146.601 82.0376C146.179 81.2889 145.967 80.4437 145.967 79.5018C145.967 78.572 146.173 77.7327 146.583 76.984C147.006 76.2354 147.579 75.6557 148.304 75.2452C149.04 74.8225 149.868 74.6112 150.785 74.6112C151.703 74.6112 152.518 74.8225 153.231 75.2452C153.955 75.6557 154.517 76.2354 154.915 76.984C155.326 77.7327 155.531 78.5901 155.531 79.5561ZM150.785 76.0784C149.952 76.0784 149.252 76.332 148.684 76.8391C148.129 77.3463 147.803 78.0104 147.706 78.8316H153.865C153.768 78.0225 153.436 77.3644 152.868 76.8572C152.313 76.338 151.619 76.0784 150.785 76.0784ZM171.359 82.7259V84.3018H162.158V71.6225H171.106V73.1984H163.969V77.0927H170.327V78.6323H163.969V82.7259H171.359ZM176.958 74.6112C178.286 74.6112 179.301 74.9372 180.001 75.5893C180.713 76.2414 181.07 77.2135 181.07 78.5055V84.3018H179.421V83.0338C179.131 83.4806 178.715 83.8248 178.171 84.0663C177.64 84.2957 177.006 84.4104 176.27 84.4104C175.195 84.4104 174.331 84.1508 173.679 83.6316C173.039 83.1123 172.719 82.4301 172.719 81.5848C172.719 80.7395 173.027 80.0633 173.643 79.5561C174.259 79.0369 175.237 78.7772 176.578 78.7772H179.331V78.4331C179.331 77.6844 179.113 77.1108 178.679 76.7123C178.244 76.3138 177.604 76.1146 176.759 76.1146C176.191 76.1146 175.636 76.2112 175.092 76.4044C174.549 76.5855 174.09 76.8331 173.716 77.1471L172.991 75.8429C173.486 75.4444 174.078 75.1425 174.766 74.9372C175.455 74.7199 176.185 74.6112 176.958 74.6112ZM176.559 83.0701C177.224 83.0701 177.797 82.9252 178.28 82.6353C178.763 82.3335 179.113 81.9108 179.331 81.3674V80.027H176.65C175.177 80.027 174.44 80.5221 174.44 81.5123C174.44 81.9953 174.627 82.3757 175.002 82.6535C175.376 82.9312 175.895 83.0701 176.559 83.0701ZM186.588 84.4104C185.803 84.4104 185.048 84.3078 184.324 84.1025C183.599 83.8852 183.032 83.6135 182.621 83.2874L183.346 81.9108C183.768 82.2127 184.281 82.4542 184.885 82.6353C185.489 82.8165 186.099 82.907 186.715 82.907C188.236 82.907 188.997 82.4723 188.997 81.6029C188.997 81.3131 188.894 81.0837 188.689 80.9146C188.484 80.7455 188.224 80.6248 187.91 80.5523C187.608 80.4678 187.174 80.3772 186.606 80.2806C185.833 80.1599 185.199 80.021 184.704 79.864C184.221 79.707 183.805 79.4414 183.454 79.067C183.104 78.6927 182.929 78.1674 182.929 77.4912C182.929 76.6218 183.291 75.9274 184.016 75.4082C184.74 74.8769 185.712 74.6112 186.932 74.6112C187.572 74.6112 188.212 74.6897 188.852 74.8467C189.492 75.0037 190.017 75.215 190.428 75.4806L189.685 76.8572C188.9 76.3501 187.977 76.0965 186.914 76.0965C186.177 76.0965 185.616 76.2172 185.229 76.4588C184.843 76.7003 184.65 77.0203 184.65 77.4188C184.65 77.7327 184.758 77.9803 184.976 78.1614C185.193 78.3425 185.459 78.4754 185.773 78.5599C186.099 78.6444 186.552 78.741 187.131 78.8497C187.904 78.9825 188.526 79.1274 188.997 79.2844C189.48 79.4293 189.891 79.6829 190.229 80.0452C190.567 80.4074 190.736 80.9146 190.736 81.5667C190.736 82.4361 190.361 83.1304 189.613 83.6497C188.876 84.1569 187.868 84.4104 186.588 84.4104ZM192.456 74.7018H194.195V84.3018H192.456V74.7018ZM193.326 72.8542C192.987 72.8542 192.704 72.7456 192.474 72.5282C192.257 72.3108 192.148 72.0452 192.148 71.7312C192.148 71.4173 192.257 71.1516 192.474 70.9342C192.704 70.7048 192.987 70.5901 193.326 70.5901C193.664 70.5901 193.941 70.6988 194.159 70.9161C194.388 71.1214 194.503 71.381 194.503 71.695C194.503 72.021 194.388 72.2988 194.159 72.5282C193.941 72.7456 193.664 72.8542 193.326 72.8542ZM205.738 79.5561C205.738 79.6889 205.726 79.864 205.702 80.0814H197.914C198.022 80.9267 198.391 81.6089 199.018 82.1282C199.658 82.6353 200.449 82.8889 201.391 82.8889C202.538 82.8889 203.462 82.5025 204.163 81.7297L205.123 82.8527C204.688 83.3599 204.145 83.7463 203.492 84.0119C202.852 84.2776 202.134 84.4104 201.337 84.4104C200.323 84.4104 199.423 84.2052 198.638 83.7946C197.853 83.3719 197.243 82.7863 196.809 82.0376C196.386 81.2889 196.175 80.4437 196.175 79.5018C196.175 78.572 196.38 77.7327 196.791 76.984C197.213 76.2354 197.787 75.6557 198.511 75.2452C199.248 74.8225 200.075 74.6112 200.993 74.6112C201.911 74.6112 202.726 74.8225 203.438 75.2452C204.163 75.6557 204.724 76.2354 205.123 76.984C205.533 77.7327 205.738 78.5901 205.738 79.5561ZM200.993 76.0784C200.16 76.0784 199.459 76.332 198.892 76.8391C198.336 77.3463 198.01 78.0104 197.914 78.8316H204.072C203.975 78.0225 203.643 77.3644 203.076 76.8572C202.52 76.338 201.826 76.0784 200.993 76.0784ZM210.453 84.4104C209.669 84.4104 208.914 84.3078 208.189 84.1025C207.465 83.8852 206.897 83.6135 206.487 83.2874L207.211 81.9108C207.634 82.2127 208.147 82.4542 208.751 82.6353C209.355 82.8165 209.964 82.907 210.58 82.907C212.102 82.907 212.862 82.4723 212.862 81.6029C212.862 81.3131 212.76 81.0837 212.555 80.9146C212.349 80.7455 212.09 80.6248 211.776 80.5523C211.474 80.4678 211.039 80.3772 210.472 80.2806C209.699 80.1599 209.065 80.021 208.57 79.864C208.087 79.707 207.67 79.4414 207.32 79.067C206.97 78.6927 206.795 78.1674 206.795 77.4912C206.795 76.6218 207.157 75.9274 207.881 75.4082C208.606 74.8769 209.578 74.6112 210.798 74.6112C211.438 74.6112 212.078 74.6897 212.718 74.8467C213.358 75.0037 213.883 75.215 214.293 75.4806L213.551 76.8572C212.766 76.3501 211.842 76.0965 210.779 76.0965C210.043 76.0965 209.481 76.2172 209.095 76.4588C208.709 76.7003 208.515 77.0203 208.515 77.4188C208.515 77.7327 208.624 77.9803 208.841 78.1614C209.059 78.3425 209.324 78.4754 209.638 78.5599C209.964 78.6444 210.417 78.741 210.997 78.8497C211.77 78.9825 212.392 79.1274 212.862 79.2844C213.345 79.4293 213.756 79.6829 214.094 80.0452C214.432 80.4074 214.601 80.9146 214.601 81.5667C214.601 82.4361 214.227 83.1304 213.478 83.6497C212.742 84.1569 211.733 84.4104 210.453 84.4104ZM221.719 83.7402C221.466 83.9576 221.152 84.1267 220.778 84.2474C220.403 84.3561 220.017 84.4104 219.618 84.4104C218.652 84.4104 217.904 84.1508 217.372 83.6316C216.841 83.1123 216.575 82.3697 216.575 81.4036V76.1327H214.945V74.7018H216.575V72.6006H218.314V74.7018H221.067V76.1327H218.314V81.3312C218.314 81.8504 218.441 82.2489 218.694 82.5267C218.96 82.8044 219.334 82.9433 219.818 82.9433C220.349 82.9433 220.802 82.7923 221.176 82.4904L221.719 83.7402ZM245.948 71.6225L241.709 84.3018H239.808L236.348 74.1765L232.888 84.3018H230.95L226.712 71.6225H228.577L232.001 81.9289L235.569 71.6225H237.235L240.731 81.9833L244.227 71.6225H245.948ZM250.228 74.6112C251.556 74.6112 252.57 74.9372 253.271 75.5893C253.983 76.2414 254.34 77.2135 254.34 78.5055V84.3018H252.691V83.0338C252.401 83.4806 251.985 83.8248 251.441 84.0663C250.91 84.2957 250.276 84.4104 249.54 84.4104C248.465 84.4104 247.601 84.1508 246.949 83.6316C246.309 83.1123 245.989 82.4301 245.989 81.5848C245.989 80.7395 246.297 80.0633 246.913 79.5561C247.529 79.0369 248.507 78.7772 249.847 78.7772H252.601V78.4331C252.601 77.6844 252.383 77.1108 251.949 76.7123C251.514 76.3138 250.874 76.1146 250.029 76.1146C249.461 76.1146 248.906 76.2112 248.362 76.4044C247.819 76.5855 247.36 76.8331 246.986 77.1471L246.261 75.8429C246.756 75.4444 247.348 75.1425 248.036 74.9372C248.724 74.7199 249.455 74.6112 250.228 74.6112ZM249.829 83.0701C250.493 83.0701 251.067 82.9252 251.55 82.6353C252.033 82.3335 252.383 81.9108 252.601 81.3674V80.027H249.92C248.447 80.027 247.71 80.5221 247.71 81.5123C247.71 81.9953 247.897 82.3757 248.272 82.6535C248.646 82.9312 249.165 83.0701 249.829 83.0701ZM265.423 74.7018L260.768 85.2618C260.357 86.2399 259.874 86.9282 259.319 87.3267C258.775 87.7251 258.117 87.9244 257.344 87.9244C256.873 87.9244 256.415 87.8459 255.968 87.6889C255.533 87.544 255.171 87.3267 254.881 87.0368L255.624 85.7327C256.119 86.2036 256.692 86.4391 257.344 86.4391C257.767 86.4391 258.117 86.3244 258.395 86.095C258.685 85.8776 258.944 85.4972 259.174 84.9538L259.482 84.2836L255.243 74.7018H257.055L260.405 82.3818L263.72 74.7018H265.423ZM276.402 83.7402C276.148 83.9576 275.835 84.1267 275.46 84.2474C275.086 84.3561 274.699 84.4104 274.301 84.4104C273.335 84.4104 272.586 84.1508 272.055 83.6316C271.524 83.1123 271.258 82.3697 271.258 81.4036V76.1327H269.628V74.7018H271.258V72.6006H272.997V74.7018H275.75V76.1327H272.997V81.3312C272.997 81.8504 273.124 82.2489 273.377 82.5267C273.643 82.8044 274.017 82.9433 274.5 82.9433C275.032 82.9433 275.484 82.7923 275.859 82.4904L276.402 83.7402ZM281.845 84.4104C280.891 84.4104 280.033 84.1991 279.273 83.7765C278.512 83.3538 277.914 82.7742 277.48 82.0376C277.057 81.2889 276.846 80.4437 276.846 79.5018C276.846 78.5599 277.057 77.7206 277.48 76.984C277.914 76.2354 278.512 75.6557 279.273 75.2452C280.033 74.8225 280.891 74.6112 281.845 74.6112C282.799 74.6112 283.65 74.8225 284.399 75.2452C285.16 75.6557 285.751 76.2354 286.174 76.984C286.609 77.7206 286.826 78.5599 286.826 79.5018C286.826 80.4437 286.609 81.2889 286.174 82.0376C285.751 82.7742 285.16 83.3538 284.399 83.7765C283.65 84.1991 282.799 84.4104 281.845 84.4104ZM281.845 82.8889C282.461 82.8889 283.01 82.7501 283.493 82.4723C283.988 82.1825 284.375 81.784 284.652 81.2769C284.93 80.7576 285.069 80.1659 285.069 79.5018C285.069 78.8376 284.93 78.252 284.652 77.7448C284.375 77.2255 283.988 76.8271 283.493 76.5493C283.01 76.2716 282.461 76.1327 281.845 76.1327C281.229 76.1327 280.673 76.2716 280.178 76.5493C279.695 76.8271 279.309 77.2255 279.019 77.7448C278.741 78.252 278.603 78.8376 278.603 79.5018C278.603 80.1659 278.741 80.7576 279.019 81.2769C279.309 81.784 279.695 82.1825 280.178 82.4723C280.673 82.7501 281.229 82.8889 281.845 82.8889ZM298.388 71.6225C300.03 71.6225 301.322 72.015 302.264 72.7999C303.206 73.5848 303.677 74.6655 303.677 76.0421C303.677 77.4188 303.206 78.4995 302.264 79.2844C301.322 80.0693 300.03 80.4618 298.388 80.4618H295.254V84.3018H293.443V71.6225H298.388ZM298.334 78.8859C299.481 78.8859 300.356 78.6444 300.96 78.1614C301.564 77.6663 301.866 76.9599 301.866 76.0421C301.866 75.1244 301.564 74.424 300.96 73.941C300.356 73.4459 299.481 73.1984 298.334 73.1984H295.254V78.8859H298.334ZM307.139 76.3138C307.441 75.7584 307.888 75.3357 308.479 75.0459C309.071 74.7561 309.789 74.6112 310.635 74.6112V76.2957C310.538 76.2837 310.405 76.2776 310.236 76.2776C309.294 76.2776 308.552 76.5614 308.008 77.1289C307.477 77.6844 307.211 78.4814 307.211 79.5199V84.3018H305.472V74.7018H307.139V76.3138ZM320.913 79.5561C320.913 79.6889 320.901 79.864 320.877 80.0814H313.088C313.197 80.9267 313.565 81.6089 314.193 82.1282C314.833 82.6353 315.624 82.8889 316.566 82.8889C317.713 82.8889 318.637 82.5025 319.337 81.7297L320.297 82.8527C319.862 83.3599 319.319 83.7463 318.667 84.0119C318.027 84.2776 317.308 84.4104 316.511 84.4104C315.497 84.4104 314.597 84.2052 313.812 83.7946C313.028 83.3719 312.418 82.7863 311.983 82.0376C311.56 81.2889 311.349 80.4437 311.349 79.5018C311.349 78.572 311.554 77.7327 311.965 76.984C312.388 76.2354 312.961 75.6557 313.686 75.2452C314.422 74.8225 315.249 74.6112 316.167 74.6112C317.085 74.6112 317.9 74.8225 318.612 75.2452C319.337 75.6557 319.898 76.2354 320.297 76.984C320.708 77.7327 320.913 78.5901 320.913 79.5561ZM316.167 76.0784C315.334 76.0784 314.634 76.332 314.066 76.8391C313.511 77.3463 313.185 78.0104 313.088 78.8316H319.246C319.15 78.0225 318.818 77.3644 318.25 76.8572C317.695 76.338 317 76.0784 316.167 76.0784ZM325.628 84.4104C324.843 84.4104 324.088 84.3078 323.364 84.1025C322.639 83.8852 322.072 83.6135 321.661 83.2874L322.385 81.9108C322.808 82.2127 323.321 82.4542 323.925 82.6353C324.529 82.8165 325.139 82.907 325.755 82.907C327.276 82.907 328.037 82.4723 328.037 81.6029C328.037 81.3131 327.934 81.0837 327.729 80.9146C327.524 80.7455 327.264 80.6248 326.95 80.5523C326.648 80.4678 326.213 80.3772 325.646 80.2806C324.873 80.1599 324.239 80.021 323.744 79.864C323.261 79.707 322.844 79.4414 322.494 79.067C322.144 78.6927 321.969 78.1674 321.969 77.4912C321.969 76.6218 322.331 75.9274 323.056 75.4082C323.78 74.8769 324.752 74.6112 325.972 74.6112C326.612 74.6112 327.252 74.6897 327.892 74.8467C328.532 75.0037 329.057 75.215 329.468 75.4806L328.725 76.8572C327.94 76.3501 327.016 76.0965 325.954 76.0965C325.217 76.0965 324.656 76.2172 324.269 76.4588C323.883 76.7003 323.69 77.0203 323.69 77.4188C323.69 77.7327 323.798 77.9803 324.016 78.1614C324.233 78.3425 324.499 78.4754 324.813 78.5599C325.139 78.6444 325.592 78.741 326.171 78.8497C326.944 78.9825 327.566 79.1274 328.037 79.2844C328.52 79.4293 328.93 79.6829 329.268 80.0452C329.607 80.4074 329.776 80.9146 329.776 81.5667C329.776 82.4361 329.401 83.1304 328.653 83.6497C327.916 84.1569 326.908 84.4104 325.628 84.4104ZM340.172 79.5561C340.172 79.6889 340.16 79.864 340.136 80.0814H332.347C332.456 80.9267 332.824 81.6089 333.452 82.1282C334.092 82.6353 334.883 82.8889 335.825 82.8889C336.972 82.8889 337.896 82.5025 338.596 81.7297L339.556 82.8527C339.122 83.3599 338.578 83.7463 337.926 84.0119C337.286 84.2776 336.568 84.4104 335.771 84.4104C334.756 84.4104 333.857 84.2052 333.072 83.7946C332.287 83.3719 331.677 82.7863 331.242 82.0376C330.82 81.2889 330.608 80.4437 330.608 79.5018C330.608 78.572 330.814 77.7327 331.224 76.984C331.647 76.2354 332.221 75.6557 332.945 75.2452C333.682 74.8225 334.509 74.6112 335.427 74.6112C336.344 74.6112 337.159 74.8225 337.872 75.2452C338.596 75.6557 339.158 76.2354 339.556 76.984C339.967 77.7327 340.172 78.5901 340.172 79.5561ZM335.427 76.0784C334.593 76.0784 333.893 76.332 333.325 76.8391C332.77 77.3463 332.444 78.0104 332.347 78.8316H338.506C338.409 78.0225 338.077 77.3644 337.51 76.8572C336.954 76.338 336.26 76.0784 335.427 76.0784ZM347.26 74.6112C348.48 74.6112 349.446 74.9674 350.158 75.6799C350.883 76.3803 351.245 77.4127 351.245 78.7772V84.3018H349.506V78.9765C349.506 78.0467 349.283 77.3463 348.836 76.8754C348.389 76.4044 347.749 76.1689 346.916 76.1689C345.974 76.1689 345.231 76.4467 344.688 77.0021C344.145 77.5455 343.873 78.3304 343.873 79.3569V84.3018H342.134V74.7018H343.8V76.1508C344.151 75.6557 344.621 75.2754 345.213 75.0097C345.817 74.744 346.499 74.6112 347.26 74.6112ZM358.247 84.4104C357.269 84.4104 356.394 84.1991 355.621 83.7765C354.86 83.3538 354.262 82.7742 353.828 82.0376C353.393 81.2889 353.176 80.4437 353.176 79.5018C353.176 78.5599 353.393 77.7206 353.828 76.984C354.262 76.2354 354.86 75.6557 355.621 75.2452C356.394 74.8225 357.269 74.6112 358.247 74.6112C359.117 74.6112 359.89 74.7863 360.566 75.1365C361.254 75.4867 361.785 75.9938 362.16 76.658L360.837 77.5093C360.536 77.0504 360.161 76.7063 359.714 76.4769C359.268 76.2474 358.773 76.1327 358.229 76.1327C357.601 76.1327 357.034 76.2716 356.527 76.5493C356.031 76.8271 355.639 77.2255 355.349 77.7448C355.071 78.252 354.933 78.8376 354.933 79.5018C354.933 80.178 355.071 80.7757 355.349 81.295C355.639 81.8021 356.031 82.1946 356.527 82.4723C357.034 82.7501 357.601 82.8889 358.229 82.8889C358.773 82.8889 359.268 82.7742 359.714 82.5448C360.161 82.3153 360.536 81.9712 360.837 81.5123L362.16 82.3455C361.785 83.0097 361.254 83.5229 360.566 83.8852C359.89 84.2353 359.117 84.4104 358.247 84.4104ZM372.493 79.5561C372.493 79.6889 372.481 79.864 372.457 80.0814H364.668C364.777 80.9267 365.145 81.6089 365.773 82.1282C366.413 82.6353 367.204 82.8889 368.146 82.8889C369.293 82.8889 370.217 82.5025 370.917 81.7297L371.877 82.8527C371.442 83.3599 370.899 83.7463 370.247 84.0119C369.607 84.2776 368.888 84.4104 368.091 84.4104C367.077 84.4104 366.177 84.2052 365.393 83.7946C364.608 83.3719 363.998 82.7863 363.563 82.0376C363.14 81.2889 362.929 80.4437 362.929 79.5018C362.929 78.572 363.134 77.7327 363.545 76.984C363.968 76.2354 364.541 75.6557 365.266 75.2452C366.002 74.8225 366.83 74.6112 367.747 74.6112C368.665 74.6112 369.48 74.8225 370.193 75.2452C370.917 75.6557 371.479 76.2354 371.877 76.984C372.288 77.7327 372.493 78.5901 372.493 79.5561ZM367.747 76.0784C366.914 76.0784 366.214 76.332 365.646 76.8391C365.091 77.3463 364.765 78.0104 364.668 78.8316H370.826C370.73 78.0225 370.398 77.3644 369.83 76.8572C369.275 76.338 368.58 76.0784 367.747 76.0784Z" fill="white" fill-opacity="0.75"/>
</svg>
