<svg width="80" height="80" viewBox="0 0 80 80" fill="none" xmlns="http://www.w3.org/2000/svg">
<path d="M39.6538 46.2644C45.1289 46.2644 49.5673 41.826 49.5673 36.351C49.5673 30.8759 45.1289 26.4375 39.6538 26.4375C34.1788 26.4375 29.7404 30.8759 29.7404 36.351C29.7404 41.826 34.1788 46.2644 39.6538 46.2644Z" stroke="#145AE3" stroke-width="6.60898" stroke-linecap="round" stroke-linejoin="round"/>
<path d="M58.3475 55.0425L44.3265 69.0635C43.0873 70.3015 41.4073 70.9968 39.6556 70.9968C37.9039 70.9968 36.2239 70.3015 34.9847 69.0635L20.9605 55.0425C17.2635 51.3453 14.7458 46.6349 13.7259 41.5069C12.706 36.3788 13.2296 31.0635 15.2305 26.2331C17.2314 21.4026 20.6197 17.274 24.9671 14.3692C29.3144 11.4645 34.4255 9.91406 39.654 9.91406C44.8824 9.91406 49.9935 11.4645 54.3408 14.3692C58.6882 17.274 62.0765 21.4026 64.0774 26.2331C66.0783 31.0635 66.6019 36.3788 65.582 41.5069C64.5621 46.6349 62.0444 51.3453 58.3475 55.0425V55.0425Z" stroke="#145AE3" stroke-width="6.60898" stroke-linecap="round" stroke-linejoin="round"/>
</svg>
