<svg width="1920" height="739" viewBox="0 0 1920 739" fill="none" xmlns="http://www.w3.org/2000/svg">
<path fill-rule="evenodd" clip-rule="evenodd" d="M0 246.333L46.4 232.648C91.2 218.963 182.4 191.593 273.6 246.333C366.4 301.074 457.6 437.926 548.8 533.722C640 629.519 731.2 684.259 822.4 615.833C913.6 547.407 1006.4 355.815 1097.6 314.759C1188.8 273.704 1280 383.185 1371.2 424.241C1462.4 465.296 1553.6 437.926 1646.4 355.815C1737.6 273.704 1828.8 136.852 1873.6 68.4259L1920 0V739H1873.6C1828.8 739 1737.6 739 1646.4 739C1553.6 739 1462.4 739 1371.2 739C1280 739 1188.8 739 1097.6 739C1006.4 739 913.6 739 822.4 739C731.2 739 640 739 548.8 739C457.6 739 366.4 739 273.6 739C182.4 739 91.2 739 46.4 739H0V246.333Z" fill="white" fill-opacity="0.1"/>
</svg>
