<svg width="1920" height="400" viewBox="0 0 1920 400" fill="none" xmlns="http://www.w3.org/2000/svg">
<mask id="mask0" mask-type="alpha" maskUnits="userSpaceOnUse" x="0" y="0" width="1920" height="400">
<path d="M0 0H1920V400H0V0Z" fill="#01A98E"/>
</mask>
<g mask="url(#mask0)">
<path d="M544.716 335.5C318.834 245 276.856 194.5 -51.9731 252V530.5H1962.48V224C1898.68 301.167 1737.39 450 1602.67 428C1434.25 400.5 1235.36 252 1076.94 295.5C918.521 339 770.598 426 544.716 335.5Z" fill="white" fill-opacity="0.1"/>
<path fill-rule="evenodd" clip-rule="evenodd" d="M0 308.75L80 322.688C160 336.625 320 364.5 480 387.729C640 410.958 800 429.542 960 410.958C1120 392.375 1280 336.625 1440 304.104C1600 271.583 1760 262.292 1840 257.646L1920 253V476H1840C1760 476 1600 476 1440 476C1280 476 1120 476 960 476C800 476 640 476 480 476C320 476 160 476 80 476H0V308.75Z" fill="white" fill-opacity="0.15"/>
</g>
</svg>
