<svg width="99" height="14" viewBox="0 0 99 14" fill="none" xmlns="http://www.w3.org/2000/svg">
<path opacity="0.75" d="M0.669297 14L9.6493 -9.53674e-07H13.5493L16.9293 14H12.9893L10.4893 1.88H12.0493L4.8493 14H0.669297ZM4.5893 11.28L6.1893 8.36H13.0293L13.4693 11.28H4.5893ZM16.959 11.32L17.459 8.74L25.339 -9.53674e-07H29.599L21.879 8.74L19.979 8.18H30.919L30.279 11.32H16.959ZM23.819 14L24.359 11.32L25.159 8.18L25.639 5.8H29.299L27.659 14H23.819ZM39.5432 14L37.8232 -9.53674e-07H41.7232L43.1832 12.12H41.1232L47.5232 -9.53674e-07H51.1832L52.5232 12.12H50.5832L56.9432 -9.53674e-07H60.8632L53.5232 14H49.2832L48.0432 3.7H49.2432L43.8032 14H39.5432ZM58.9821 14L61.7821 -9.53674e-07H67.7021C69.5154 -9.53674e-07 70.9154 0.393332 71.9021 1.18C72.8888 1.96667 73.3821 3.07333 73.3821 4.5C73.3821 5.67333 73.1021 6.7 72.5421 7.58C71.9821 8.46 71.1821 9.14 70.1421 9.62C69.1021 10.1 67.8754 10.34 66.4621 10.34H61.9221L64.0221 8.58L62.9421 14H58.9821ZM63.9221 9.04L62.5421 7.22H66.6421C67.5088 7.22 68.1821 7.01333 68.6621 6.6C69.1421 6.18667 69.3821 5.6 69.3821 4.84C69.3821 4.25333 69.1888 3.82 68.8021 3.54C68.4154 3.26 67.8754 3.12 67.1821 3.12H63.3821L65.4821 1.24L63.9221 9.04ZM73.0329 14L75.8329 -9.53674e-07H81.7529C83.5662 -9.53674e-07 84.9662 0.393332 85.9529 1.18C86.9396 1.96667 87.4329 3.07333 87.4329 4.5C87.4329 5.67333 87.1529 6.7 86.5929 7.58C86.0329 8.46 85.2329 9.14 84.1929 9.62C83.1529 10.1 81.9262 10.34 80.5129 10.34H75.9729L78.0729 8.58L76.9929 14H73.0329ZM77.9729 9.04L76.5929 7.22H80.6929C81.5596 7.22 82.2329 7.01333 82.7129 6.6C83.1929 6.18667 83.4329 5.6 83.4329 4.84C83.4329 4.25333 83.2396 3.82 82.8529 3.54C82.4662 3.26 81.9262 3.12 81.2329 3.12H77.4329L79.5329 1.24L77.9729 9.04ZM87.0837 14L89.8837 -9.53674e-07H93.8437L91.6837 10.86H98.3637L97.7237 14H87.0837Z" fill="url(#paint0_linear_2657_9310)"/>
<defs>
<linearGradient id="paint0_linear_2657_9310" x1="-10.5453" y1="24.7333" x2="58.1475" y2="-52.8934" gradientUnits="userSpaceOnUse">
<stop stop-color="#145AE3"/>
<stop offset="1" stop-color="#15AEEF"/>
</linearGradient>
</defs>
</svg>
